<svg width="32" height="32" viewBox="0 0 400 184" fill="none" xmlns="http://www.w3.org/2000/svg">
  <g clip-path="url(#clip0)">
    <path d="M393.3 57.2C388.7 45.8 381.9 35.6 373.2 26.9C364.4 18.2 354.2 11.4 342.9 6.8C331.8 2.3 320.2 0 308.3 0C296.4 0 284.8 2.3 273.8 6.7C262.4 11.3 252.2 18.1 243.5 26.8L200 70.3L156.5 26.8C147.7 18.1 137.5 11.3 126.2 6.7C115.2 2.3 103.6 0 91.7 0C79.8 0 68.2 2.3 57.2 6.7C45.8 11.3 35.6 18.1 26.9 26.8C18.2 35.6 11.4 45.8 6.8 57.1C2.3 68.2 0 79.8 0 91.7C0 103.6 2.3 115.2 6.7 126.2C11.3 137.6 18.1 147.8 26.8 156.5C35.5 165.2 45.8 172 57.1 176.6C68.1 181.1 79.7 183.3 91.6 183.3C103.5 183.3 115.1 181 126.1 176.6C137.5 172 147.7 165.2 156.4 156.5L199.9 113L210.4 123.5L243.4 156.5C252.2 165.2 262.4 172 273.7 176.6C284.7 181.1 296.3 183.3 308.2 183.3C320.1 183.3 331.7 181 342.7 176.6C354.1 172 364.3 165.2 373 156.5C381.7 147.7 388.5 137.5 393.1 126.2C397.6 115.2 399.8 103.6 399.8 91.7C399.8 79.8 397.5 68.2 393.1 57.2H393.3ZM369.7 91.7C369.7 108.1 363.3 123.6 351.7 135.2C340.1 146.8 324.7 153.2 308.2 153.2C291.7 153.2 276.3 146.8 264.7 135.2L221.2 91.7L264.7 48.2C276.3 36.6 291.7 30.2 308.2 30.2C324.7 30.2 340.1 36.6 351.7 48.2C363.3 59.8 369.7 75.2 369.7 91.7ZM178.6 91.7L135.1 135.2C123.5 146.8 108.1 153.2 91.6 153.2C75.2 153.2 59.7 146.8 48.1 135.2C36.5 123.6 30.1 108.2 30.1 91.7C30.1 75.2 36.5 59.8 48.1 48.2C59.7 36.6 75.1 30.2 91.6 30.2C108 30.2 123.5 36.6 135.1 48.2L178.5 91.6V91.7H178.6Z" fill="black"/>
  </g>
  <defs>
    <clipPath id="clip0">
      <rect width="400" height="183.4" fill="white"/>
    </clipPath>
  </defs>
</svg>